REM DIRINDEX 1\2,1\3,1\4,1\5,1\6
REM DIRNAME "folder01","folder02","folder03","folder04","folder05","folder06"
TITLE ""
FILE "Disc6Track05.mp3" MP3
  TRACK 01 AUDIO
    TITLE "3:cjc161_10593"
    INDEX 01 00:00:00
  TRACK 02 AUDIO
    TITLE "4:cjc161_10594"
    INDEX 01 00:00:69
  TRACK 03 AUDIO
    TITLE "5:cjc161_10595"
    INDEX 01 00:03:63
  TRACK 04 AUDIO
    TITLE "6:cjc161_10596"
    INDEX 01 00:04:69
  TRACK 05 AUDIO
    TITLE "0:"
    INDEX 01 00:06:64
  TRACK 06 AUDIO
    TITLE "3:cjc161_10597"
    INDEX 01 00:07:20
  TRACK 07 AUDIO
    TITLE "4:cjc161_10598"
    INDEX 01 00:08:45
  TRACK 08 AUDIO
    TITLE "5:cjc161_10599"
    INDEX 01 00:09:52
  TRACK 09 AUDIO
    TITLE "6:cjc161_10600"
    INDEX 01 00:10:75
  TRACK 10 AUDIO
    TITLE "0:"
    INDEX 01 00:13:17
  TRACK 11 AUDIO
    TITLE "3:cjc161_10601"
    INDEX 01 00:13:46
  TRACK 12 AUDIO
    TITLE "4:cjc161_10602"
    INDEX 01 00:14:65
  TRACK 13 AUDIO
    TITLE "5:cjc161_10603"
    INDEX 01 00:16:07
  TRACK 14 AUDIO
    TITLE "6:cjc161_10604"
    INDEX 01 00:17:24
  TRACK 15 AUDIO
    TITLE "0:"
    INDEX 01 00:19:12
  TRACK 16 AUDIO
    TITLE "3:cjc161_10605"
    INDEX 01 00:19:41
  TRACK 17 AUDIO
    TITLE "4:cjc161_10606"
    INDEX 01 00:20:60
  TRACK 18 AUDIO
    TITLE "5:cjc161_10607"
    INDEX 01 00:23:47
  TRACK 19 AUDIO
    TITLE "0:"
    INDEX 01 00:24:68
  TRACK 20 AUDIO
    TITLE "3:cjc161_10608"
    INDEX 01 00:25:32
  TRACK 21 AUDIO
    TITLE "4:cjc161_10609"
    INDEX 01 00:26:49
  TRACK 22 AUDIO
    TITLE "5:cjc161_10610"
    INDEX 01 00:27:60
  TRACK 23 AUDIO
    TITLE "6:cjc161_10611"
    INDEX 01 00:28:75
  TRACK 24 AUDIO
    TITLE "0:"
    INDEX 01 00:31:01
  TRACK 25 AUDIO
    TITLE "3:cjc161_10612"
    INDEX 01 00:31:32
  TRACK 26 AUDIO
    TITLE "4:cjc161_10613"
    INDEX 01 00:32:38
  TRACK 27 AUDIO
    TITLE "5:cjc161_10614"
    INDEX 01 00:34:39
  TRACK 28 AUDIO
    TITLE "6:cjc161_10615"
    INDEX 01 00:35:42
  TRACK 29 AUDIO
    TITLE "0:"
    INDEX 01 00:37:23
  TRACK 30 AUDIO
    TITLE "3:cjc161_10616"
    INDEX 01 00:37:53
  TRACK 31 AUDIO
    TITLE "4:cjc161_10617"
    INDEX 01 00:39:03
  TRACK 32 AUDIO
    TITLE "5:cjc161_10618"
    INDEX 01 00:41:27
  TRACK 33 AUDIO
    TITLE "0:"
    INDEX 01 00:42:52
  TRACK 34 AUDIO
    TITLE "3:cjc161_10619"
    INDEX 01 00:43:10
  TRACK 35 AUDIO
    TITLE "4:cjc161_10620"
    INDEX 01 00:44:19
  TRACK 36 AUDIO
    TITLE "5:cjc161_10621"
    INDEX 01 00:46:03
  TRACK 37 AUDIO
    TITLE "6:cjc161_10622"
    INDEX 01 00:47:10
  TRACK 38 AUDIO
    TITLE "0:"
    INDEX 01 00:49:28
  TRACK 39 AUDIO
    TITLE "3:cjc161_10623"
    INDEX 01 00:49:58
  TRACK 40 AUDIO
    TITLE "4:cjc161_10624"
    INDEX 01 00:50:59
  TRACK 41 AUDIO
    TITLE "5:cjc161_10625"
    INDEX 01 00:51:55
  TRACK 42 AUDIO
    TITLE "6:cjc161_10626"
    INDEX 01 00:52:54
  TRACK 43 AUDIO
    TITLE "0:"
    INDEX 01 00:54:31
  TRACK 44 AUDIO
    TITLE "3:cjc161_10627"
    INDEX 01 00:54:63
  TRACK 45 AUDIO
    TITLE "4:cjc161_10628"
    INDEX 01 00:56:05
  TRACK 46 AUDIO
    TITLE "5:cjc161_10629"
    INDEX 01 00:57:04
  TRACK 47 AUDIO
    TITLE "6:cjc161_10630"
    INDEX 01 00:58:21
  TRACK 48 AUDIO
    TITLE "0:"
    INDEX 01 01:00:20
  TRACK 49 AUDIO
    TITLE "3:cjc161_10631"
    INDEX 01 01:00:50
  TRACK 50 AUDIO
    TITLE "4:cjc161_10632"
    INDEX 01 01:01:55
  TRACK 51 AUDIO
    TITLE "5:cjc161_10633"
    INDEX 01 01:03:13
  TRACK 52 AUDIO
    TITLE "6:cjc161_10634"
    INDEX 01 01:04:16
  TRACK 53 AUDIO
    TITLE "0:"
    INDEX 01 01:08:53
  TRACK 54 AUDIO
    TITLE "3:cjc161_10635"
    INDEX 01 01:09:10
  TRACK 55 AUDIO
    TITLE "4:cjc161_10636"
    INDEX 01 01:10:25
  TRACK 56 AUDIO
    TITLE "5:cjc161_10637"
    INDEX 01 01:12:72
  TRACK 57 AUDIO
    TITLE "6:cjc161_10638"
    INDEX 01 01:14:11
  TRACK 58 AUDIO
    TITLE "0:"
    INDEX 01 01:17:03
  TRACK 59 AUDIO
    TITLE "3:cjc161_10639"
    INDEX 01 01:17:34
  TRACK 60 AUDIO
    TITLE "4:cjc161_10640"
    INDEX 01 01:18:55
  TRACK 61 AUDIO
    TITLE "5:cjc161_10641"
    INDEX 01 01:22:61
  TRACK 62 AUDIO
    TITLE "6:cjc161_10642"
    INDEX 01 01:24:05
  TRACK 63 AUDIO
    TITLE "0:"
    INDEX 01 01:29:49
  TRACK 64 AUDIO
    TITLE "3:cjc161_10643"
    INDEX 01 01:30:04
  TRACK 65 AUDIO
    TITLE "4:cjc161_10644"
    INDEX 01 01:31:21
  TRACK 66 AUDIO
    TITLE "5:cjc161_10645"
    INDEX 01 01:33:24
  TRACK 67 AUDIO
    TITLE "0:"
    INDEX 01 01:34:45
  TRACK 68 AUDIO
    TITLE "3:cjc161_10646"
    INDEX 01 01:35:07
  TRACK 69 AUDIO
    TITLE "4:cjc161_10647"
    INDEX 01 01:36:22
  TRACK 70 AUDIO
    TITLE "5:cjc161_10648"
    INDEX 01 01:39:40
  TRACK 71 AUDIO
    TITLE "6:cjc161_10649"
    INDEX 01 01:40:53
  TRACK 72 AUDIO
    TITLE "0:"
    INDEX 01 01:42:66
  TRACK 73 AUDIO
    TITLE "3:cjc161_10650"
    INDEX 01 01:43:18
  TRACK 74 AUDIO
    TITLE "4:cjc161_10651"
    INDEX 01 01:44:35
  TRACK 75 AUDIO
    TITLE "5:cjc161_10652"
    INDEX 01 01:46:52
  TRACK 76 AUDIO
    TITLE "6:cjc161_10653"
    INDEX 01 01:47:67
  TRACK 77 AUDIO
    TITLE "0:"
    INDEX 01 01:51:47
